<svg width="7" height="5" viewBox="0 0 7 5" fill="none" xmlns="http://www.w3.org/2000/svg">
<g id="group-users-people">
<ellipse id="XMLID_1652_" cx="1.24077" cy="0.773401" rx="0.594286" ry="0.623377" stroke="#2F4050" stroke-width="0.3" stroke-linecap="round" stroke-linejoin="round"/>
<ellipse id="XMLID_1111_" cx="4.8062" cy="0.773401" rx="0.594286" ry="0.623377" stroke="#2F4050" stroke-width="0.3" stroke-linecap="round" stroke-linejoin="round"/>
<ellipse id="XMLID_1100_" cx="3.02285" cy="0.981193" rx="0.792381" ry="0.831169" stroke="#2F4050" stroke-width="0.3" stroke-linecap="round" stroke-linejoin="round"/>
<path id="Path" d="M4.50426 2.74746H5.7395C5.82545 2.74746 5.89515 2.66024 5.89515 2.55265V2.45762C5.89515 2.26173 5.80717 2.08365 5.66794 1.99417C5.4667 1.86487 5.15178 1.7085 4.80562 1.7085C4.45946 1.7085 4.14456 1.86487 3.94331 1.99417C3.83121 2.06621 3.75501 2.19659 3.72852 2.34655" stroke="#2F4050" stroke-width="0.3" stroke-linecap="round" stroke-linejoin="round"/>
<path id="Path_2" d="M2.31702 2.34655C2.29053 2.19659 2.21432 2.06621 2.10223 1.99417C1.90099 1.86487 1.58607 1.7085 1.23991 1.7085C0.893756 1.7085 0.578851 1.86487 0.3776 1.99417C0.238375 2.08365 0.150391 2.26173 0.150391 2.45762V2.55265C0.150391 2.66024 0.220082 2.74746 0.306035 2.74746H1.54128" stroke="#2F4050" stroke-width="0.3" stroke-linecap="round" stroke-linejoin="round"/>
<path id="XMLID_1098_" fill-rule="evenodd" clip-rule="evenodd" d="M3.02365 2.22797C2.48869 2.22797 2.00199 2.4469 1.69099 2.62793C1.47582 2.75319 1.33984 3.0025 1.33984 3.27675V3.40978C1.33984 3.56041 1.44754 3.68251 1.58039 3.68251H4.46692C4.59977 3.68251 4.70746 3.56041 4.70746 3.40978V3.27675C4.70746 3.0025 4.57149 2.75319 4.35631 2.62793C4.04531 2.4469 3.55862 2.22797 3.02365 2.22797Z" stroke="#2F4050" stroke-width="0.3" stroke-linecap="round" stroke-linejoin="round"/>
</g>
</svg>
